<mxfile host="app.diagrams.net" modified="2024-04-13T19:50:25.182Z" agent="Mozilla/5.0 (Windows NT 10.0; Win64; x64) AppleWebKit/537.36 (KHTML, like Gecko) Chrome/123.0.0.0 Safari/537.36" etag="BSZ6zZpXIRMULw3K4oAx" version="24.2.5" type="github">
  <diagram name="Сторінка-1" id="Gaa62khZ0iMMDS0VvzNa">
    <mxGraphModel dx="933" dy="390" grid="1" gridSize="10" guides="1" tooltips="1" connect="1" arrows="1" fold="1" page="1" pageScale="1" pageWidth="827" pageHeight="1169" math="0" shadow="0">
      <root>
        <mxCell id="0" />
        <mxCell id="1" parent="0" />
        <mxCell id="AW8jp3L0kF_qgWWD1nCo-15" style="edgeStyle=orthogonalEdgeStyle;rounded=0;orthogonalLoop=1;jettySize=auto;html=1;exitX=0.5;exitY=1;exitDx=0;exitDy=0;shape=link;" edge="1" parent="1" source="AW8jp3L0kF_qgWWD1nCo-1" target="AW8jp3L0kF_qgWWD1nCo-4">
          <mxGeometry relative="1" as="geometry" />
        </mxCell>
        <mxCell id="AW8jp3L0kF_qgWWD1nCo-17" style="edgeStyle=orthogonalEdgeStyle;rounded=0;orthogonalLoop=1;jettySize=auto;html=1;exitX=1;exitY=0.5;exitDx=0;exitDy=0;shape=link;width=4.166666666666668;" edge="1" parent="1" source="AW8jp3L0kF_qgWWD1nCo-1">
          <mxGeometry relative="1" as="geometry">
            <mxPoint x="540" y="380" as="targetPoint" />
          </mxGeometry>
        </mxCell>
        <mxCell id="AW8jp3L0kF_qgWWD1nCo-18" style="edgeStyle=orthogonalEdgeStyle;rounded=0;orthogonalLoop=1;jettySize=auto;html=1;exitX=0;exitY=0.5;exitDx=0;exitDy=0;shape=link;" edge="1" parent="1" source="AW8jp3L0kF_qgWWD1nCo-1">
          <mxGeometry relative="1" as="geometry">
            <mxPoint x="290" y="380" as="targetPoint" />
          </mxGeometry>
        </mxCell>
        <mxCell id="AW8jp3L0kF_qgWWD1nCo-19" style="edgeStyle=orthogonalEdgeStyle;rounded=0;orthogonalLoop=1;jettySize=auto;html=1;exitX=0.5;exitY=0;exitDx=0;exitDy=0;shape=link;" edge="1" parent="1" source="AW8jp3L0kF_qgWWD1nCo-1">
          <mxGeometry relative="1" as="geometry">
            <mxPoint x="413.66666666666674" y="140" as="targetPoint" />
          </mxGeometry>
        </mxCell>
        <mxCell id="AW8jp3L0kF_qgWWD1nCo-20" style="edgeStyle=orthogonalEdgeStyle;rounded=0;orthogonalLoop=1;jettySize=auto;html=1;exitX=1;exitY=0;exitDx=0;exitDy=0;shape=link;" edge="1" parent="1" source="AW8jp3L0kF_qgWWD1nCo-1">
          <mxGeometry relative="1" as="geometry">
            <mxPoint x="570" y="180" as="targetPoint" />
          </mxGeometry>
        </mxCell>
        <mxCell id="AW8jp3L0kF_qgWWD1nCo-21" style="edgeStyle=orthogonalEdgeStyle;rounded=0;orthogonalLoop=1;jettySize=auto;html=1;exitX=0;exitY=0;exitDx=0;exitDy=0;shape=link;" edge="1" parent="1" source="AW8jp3L0kF_qgWWD1nCo-1">
          <mxGeometry relative="1" as="geometry">
            <mxPoint x="250" y="180" as="targetPoint" />
          </mxGeometry>
        </mxCell>
        <mxCell id="AW8jp3L0kF_qgWWD1nCo-1" value="&lt;font face=&quot;Times New Roman&quot; style=&quot;font-size: 18px;&quot;&gt;ОпТС&lt;/font&gt;" style="rounded=0;whiteSpace=wrap;html=1;" vertex="1" parent="1">
          <mxGeometry x="354" y="270" width="120" height="60" as="geometry" />
        </mxCell>
        <mxCell id="AW8jp3L0kF_qgWWD1nCo-4" value="&lt;font style=&quot;font-size: 18px;&quot;&gt;МТТС&lt;/font&gt;" style="rounded=1;whiteSpace=wrap;html=1;" vertex="1" parent="1">
          <mxGeometry x="354" y="430" width="120" height="60" as="geometry" />
        </mxCell>
      </root>
    </mxGraphModel>
  </diagram>
</mxfile>
